<?xml version="1.0" standalone="no"?>
<!DOCTYPE svg PUBLIC "-//W3C//DTD SVG 20010904//EN"
 "http://www.w3.org/TR/2001/REC-SVG-20010904/DTD/svg10.dtd">
<svg version="1.0" xmlns="http://www.w3.org/2000/svg"
 width="1920.000000pt" height="1497.000000pt" viewBox="0 0 1920.000000 1497.000000"
 preserveAspectRatio="xMidYMid meet">
<metadata>
Created by potrace 1.16, written by Peter Selinger 2001-2019
</metadata>
<g transform="translate(0.000000,1497.000000) scale(0.100000,-0.100000)"
fill="#000000" stroke="none">
<path d="M0 7485 l0 -7485 9600 0 9600 0 0 7485 0 7485 -9600 0 -9600 0 0
-7485z m15689 6033 c48 -189 56 -273 56 -618 -1 -348 -9 -448 -71 -815 -87
-526 -224 -1015 -435 -1557 -72 -185 -82 -235 -55 -286 21 -40 54 -66 116 -92
l56 -22 24 -86 c72 -266 190 -583 292 -787 312 -626 705 -1001 1223 -1168 200
-64 294 -77 575 -77 239 0 255 1 397 30 205 43 316 74 430 121 149 61 163 65
173 49 14 -23 28 -131 40 -315 6 -93 16 -221 21 -283 21 -211 -23 -477 -133
-812 -164 -500 -320 -825 -586 -1220 -101 -149 -381 -525 -446 -597 -68 -75
-64 -83 42 -83 219 1 472 73 799 230 l162 78 -17 -37 c-27 -58 -248 -455 -304
-544 -161 -259 -432 -639 -572 -801 -238 -276 -326 -369 -548 -576 -339 -317
-656 -555 -1048 -787 -623 -369 -1444 -657 -2080 -728 -195 -22 -210 -25 -210
-35 0 -39 203 -194 357 -273 106 -54 299 -127 339 -127 19 -1 54 -22 54 -33 0
-20 -346 -105 -580 -142 -357 -56 -991 -60 -1542 -9 -83 7 -85 15 -33 122 120
250 197 510 239 802 l22 155 274 6 c375 9 659 43 990 118 244 56 626 177 730
232 l45 23 -95 12 c-53 7 -125 23 -160 35 -123 42 -297 159 -332 222 -11 21
13 46 45 47 10 0 37 13 60 28 23 16 78 48 122 72 307 168 746 480 1065 758
141 123 447 421 546 532 27 31 65 74 84 95 310 348 613 775 879 1238 162 283
461 939 461 1014 0 10 -23 13 -90 13 -578 0 -1281 310 -1735 765 -204 204
-323 384 -405 610 -31 83 -34 102 -39 250 l-6 159 -65 17 c-143 36 -292 51
-565 56 -299 6 -444 -6 -674 -53 -602 -124 -1121 -392 -1588 -821 -116 -107
-149 -125 -139 -75 33 161 30 424 -5 540 -26 85 -66 154 -86 150 -9 -2 -27
-36 -44 -82 -73 -201 -264 -512 -462 -751 -89 -108 -331 -338 -428 -408 -106
-76 -256 -155 -311 -164 -34 -5 -38 -3 -64 38 -113 178 -290 651 -413 1099
-139 507 -301 1329 -371 1880 -11 90 -25 169 -30 174 -13 13 -27 -27 -35 -100
-9 -84 -31 -233 -77 -519 -173 -1085 -432 -2016 -692 -2490 l-44 -80 -40 2
c-69 3 -254 108 -402 229 -95 77 -305 294 -393 405 -157 199 -320 467 -413
682 -22 48 -42 87 -46 87 -14 0 -54 -74 -77 -140 -17 -50 -24 -96 -28 -205 -5
-125 8 -319 24 -361 3 -9 -2 -14 -17 -14 -14 0 -57 34 -124 98 -313 302 -745
564 -1173 712 -244 84 -505 140 -749 161 -268 22 -695 0 -933 -49 l-36 -8 -6
-154 c-7 -181 -27 -256 -114 -430 -78 -155 -163 -268 -325 -431 -154 -155
-230 -218 -375 -316 -437 -292 -866 -442 -1313 -460 -135 -5 -152 -8 -147 -22
4 -9 25 -65 47 -126 64 -174 180 -432 297 -660 445 -868 1090 -1662 1836
-2261 301 -242 702 -508 1003 -665 54 -28 82 -49 82 -60 0 -24 -92 -104 -180
-155 -90 -53 -229 -100 -331 -111 l-74 -9 53 -27 c104 -54 407 -154 642 -210
347 -85 679 -127 1035 -133 149 -3 280 -7 293 -10 18 -3 22 -11 22 -39 0 -45
24 -203 50 -330 36 -177 117 -414 204 -595 20 -41 36 -80 36 -86 0 -16 -26
-21 -160 -33 -63 -6 -171 -15 -239 -21 -186 -17 -734 -14 -936 5 -252 23 -567
74 -700 114 -16 5 -55 17 -86 25 -38 11 -58 22 -61 34 -5 17 10 23 111 51 64
17 151 47 194 65 91 40 243 136 344 218 108 88 116 117 33 118 -110 0 -463 58
-680 111 -347 85 -793 245 -1126 404 -1075 513 -1994 1375 -2651 2485 -115
193 -243 430 -249 457 l-6 29 159 -78 c160 -79 408 -168 568 -204 46 -10 123
-18 180 -18 87 -1 100 1 103 16 2 10 -29 58 -75 115 -102 126 -344 469 -454
643 -141 222 -254 436 -354 670 -61 144 -175 471 -175 506 0 11 -4 24 -9 30
-5 5 -23 74 -39 154 -17 80 -37 172 -44 205 -9 43 -13 153 -13 385 1 310 8
418 36 552 l10 47 47 -19 c26 -10 85 -34 132 -54 113 -47 266 -89 430 -120
123 -24 157 -26 395 -26 253 0 263 1 390 30 232 54 365 106 553 219 375 225
704 639 925 1166 76 181 122 310 187 525 l56 184 59 23 c33 12 72 36 88 53 24
27 27 37 27 105 0 62 -5 85 -26 128 -101 199 -312 867 -403 1275 -98 441 -131
707 -138 1093 -6 327 3 471 38 642 33 159 91 307 120 307 24 0 285 -136 409
-212 258 -159 484 -341 701 -566 129 -132 205 -223 487 -577 150 -189 273
-332 316 -365 10 -8 45 -38 77 -67 267 -239 605 -140 908 267 41 54 71 105 71
118 0 27 -28 63 -197 255 -135 151 -145 174 -91 195 714 281 1329 453 1933
541 235 34 426 46 750 46 282 0 323 -2 449 -24 137 -24 141 -24 230 -7 207 37
244 40 526 40 226 -1 323 -6 470 -23 716 -83 1364 -251 2122 -548 71 -28 98
-43 98 -55 0 -10 -42 -65 -92 -124 -116 -133 -213 -252 -229 -281 -10 -19 -6
-31 36 -95 27 -40 103 -127 169 -194 109 -108 131 -126 216 -167 167 -82 260
-93 390 -44 66 24 110 51 176 106 116 98 168 157 494 566 406 507 729 803
1125 1032 126 73 330 181 350 185 28 6 77 -98 114 -244z m-10014 -7479 c224
-28 637 -110 933 -185 455 -115 843 -269 1056 -418 71 -49 85 -69 70 -93 -20
-32 -186 -140 -309 -202 -140 -70 -223 -91 -357 -91 -124 0 -197 17 -363 85
-228 92 -346 165 -609 374 -141 113 -555 474 -575 502 -21 29 -8 49 31 44 18
-3 74 -10 123 -16z m8081 5 c-3 -9 -6 -19 -6 -24 0 -13 -388 -357 -555 -491
-272 -219 -398 -298 -637 -395 -157 -65 -241 -84 -363 -84 -176 0 -343 64
-571 219 -127 87 -128 95 -24 168 130 91 389 213 610 286 419 140 773 220
1460 330 14 2 40 5 59 6 26 1 32 -2 27 -15z m-3935 -219 c241 -24 406 -63 601
-141 125 -49 184 -80 191 -98 4 -10 -18 -37 -69 -83 -41 -37 -86 -81 -99 -99
l-24 -31 77 -60 c206 -160 392 -370 552 -623 64 -103 195 -353 245 -469 84
-198 198 -550 227 -705 10 -55 18 -71 36 -79 14 -6 26 -7 31 -1 13 13 114 334
156 494 37 140 47 162 66 143 35 -35 191 -585 253 -893 63 -315 76 -579 49
-985 -12 -184 -43 -338 -106 -535 -127 -394 -375 -764 -670 -1002 -112 -90
-199 -148 -220 -148 -8 0 -47 28 -88 63 -329 278 -645 449 -1000 541 -199 52
-267 60 -447 53 -178 -7 -287 -28 -498 -98 -252 -84 -595 -282 -822 -474 -83
-70 -107 -86 -126 -81 -44 11 -200 131 -319 246 -266 256 -468 595 -577 966
-58 197 -71 272 -80 439 -5 83 -14 193 -20 245 -39 311 56 877 250 1486 56
177 64 194 89 194 15 0 19 -10 24 -57 10 -112 167 -620 194 -630 21 -8 23 -2
43 99 25 122 95 360 158 528 137 371 320 699 531 951 99 119 294 305 378 362
34 23 63 46 63 50 0 4 -41 50 -90 101 -68 71 -87 96 -78 103 24 19 162 81 253
113 178 62 409 109 610 123 28 2 62 4 76 5 14 1 95 -5 180 -13z"/>
<path d="M9443 2945 c-261 -47 -475 -190 -569 -380 -63 -127 -67 -256 -13
-381 29 -69 224 -337 294 -406 155 -151 405 -288 528 -288 112 0 406 214 560
410 29 36 78 96 110 134 110 133 151 259 128 398 -18 111 -62 190 -156 283
-121 121 -274 198 -455 231 -94 17 -332 16 -427 -1z m335 -205 c167 -27 282
-107 282 -197 0 -42 -63 -114 -131 -148 -110 -56 -333 -70 -469 -30 -73 22
-155 70 -180 105 -32 45 -28 116 10 161 74 91 295 140 488 109z"/>
</g>
</svg>
